<svg width="21" height="19" viewBox="0 0 19 17" fill="none" xmlns="http://www.w3.org/2000/svg">
<path d="M7.52176 15C7.52176 14.2188 6.87444 13.5714 6.09319 13.5714C5.31194 13.5714 4.66462 14.2188 4.66462 15C4.66462 15.7812 5.31194 16.4286 6.09319 16.4286C6.87444 16.4286 7.52176 15.7812 7.52176 15ZM17.5218 15C17.5218 14.2188 16.8744 13.5714 16.0932 13.5714C15.3119 13.5714 14.6646 14.2188 14.6646 15C14.6646 15.7812 15.3119 16.4286 16.0932 16.4286C16.8744 16.4286 17.5218 15.7812 17.5218 15ZM18.9503 2.85714C18.9503 2.46652 18.6267 2.14286 18.2361 2.14286H4.83203C4.72042 1.60714 4.6981 0.714285 3.95033 0.714285H1.09319C0.702567 0.714285 0.378906 1.03795 0.378906 1.42857C0.378906 1.8192 0.702567 2.14286 1.09319 2.14286H3.36998L5.34542 11.3281C5.16685 11.6741 4.66462 12.5112 4.66462 12.8571C4.66462 13.2478 4.98828 13.5714 5.37891 13.5714H16.8075C17.1981 13.5714 17.5218 13.2478 17.5218 12.8571C17.5218 12.4665 17.1981 12.1429 16.8075 12.1429H6.53962C6.65123 11.9196 6.80748 11.6853 6.80748 11.4286C6.80748 11.1607 6.71819 10.904 6.66239 10.6473L18.3142 9.28571C18.6713 9.24107 18.9503 8.92857 18.9503 8.57143V2.85714Z" fill="#466ECB"/>
</svg>
