<svg width="26" height="27" viewBox="0 0 26 27" fill="none" xmlns="http://www.w3.org/2000/svg">
<path d="M21.5672 18.2578C21.5672 18.6931 21.3664 19.5469 21.1989 19.9487C20.6967 21.0536 18.5873 21.8571 17.4322 21.8571C16.3105 21.8571 15.2893 21.4051 14.2514 21.0201C10.5851 19.6808 6.60073 15.6964 5.26144 12.0301C4.8764 10.9922 4.42439 9.97098 4.42439 8.84933C4.42439 7.6942 5.22796 5.58482 6.33287 5.08259C6.73465 4.91518 7.58845 4.71428 8.02372 4.71428C8.10742 4.71428 8.20787 4.71428 8.29157 4.74777C8.59291 4.84821 9.83175 7.29241 10.0996 7.76116C10.2838 8.07924 10.6521 8.46428 10.6521 8.84933C10.6521 9.58594 8.45898 10.6741 8.45898 11.327C8.45898 11.6618 8.76032 12.0804 8.92773 12.3817C10.1666 14.5915 11.69 16.115 13.8998 17.3538C14.2012 17.5212 14.6197 17.8225 14.9545 17.8225C15.6074 17.8225 16.6956 15.6295 17.4322 15.6295C17.8172 15.6295 18.2023 15.9978 18.5204 16.1819C18.9891 16.4498 21.4333 17.6886 21.5338 17.99C21.5672 18.0737 21.5672 18.1741 21.5672 18.2578ZM25.853 5.25C25.853 2.58817 23.6934 0.42857 21.0315 0.42857H4.9601C2.29827 0.42857 0.138672 2.58817 0.138672 5.25V21.3214C0.138672 23.9833 2.29827 26.1429 4.9601 26.1429H21.0315C23.6934 26.1429 25.853 23.9833 25.853 21.3214V5.25Z" fill="#466ECB"/>
</svg>
