<svg width="17" height="18" viewBox="0 0 17 18" fill="none" xmlns="http://www.w3.org/2000/svg">
<path d="M6.35296 14.2143V6.35714C6.35296 6.25298 6.31948 6.16741 6.25251 6.10045C6.18555 6.03348 6.09998 6 5.99582 6H5.28153C5.17736 6 5.0918 6.03348 5.02483 6.10045C4.95787 6.16741 4.92439 6.25298 4.92439 6.35714V14.2143C4.92439 14.3185 4.95787 14.404 5.02483 14.471C5.0918 14.5379 5.17736 14.5714 5.28153 14.5714H5.99582C6.09998 14.5714 6.18555 14.5379 6.25251 14.471C6.31948 14.404 6.35296 14.3185 6.35296 14.2143ZM9.2101 14.2143V6.35714C9.2101 6.25298 9.17662 6.16741 9.10965 6.10045C9.04269 6.03348 8.95712 6 8.85296 6H8.13867C8.03451 6 7.94894 6.03348 7.88198 6.10045C7.81501 6.16741 7.78153 6.25298 7.78153 6.35714V14.2143C7.78153 14.3185 7.81501 14.404 7.88198 14.471C7.94894 14.5379 8.03451 14.5714 8.13867 14.5714H8.85296C8.95712 14.5714 9.04269 14.5379 9.10965 14.471C9.17662 14.404 9.2101 14.3185 9.2101 14.2143ZM12.0672 14.2143V6.35714C12.0672 6.25298 12.0338 6.16741 11.9668 6.10045C11.8998 6.03348 11.8143 6 11.7101 6H10.9958C10.8916 6 10.8061 6.03348 10.7391 6.10045C10.6722 6.16741 10.6387 6.25298 10.6387 6.35714V14.2143C10.6387 14.3185 10.6722 14.404 10.7391 14.471C10.8061 14.5379 10.8916 14.5714 10.9958 14.5714H11.7101C11.8143 14.5714 11.8998 14.5379 11.9668 14.471C12.0338 14.404 12.0672 14.3185 12.0672 14.2143ZM5.99582 3.14286H10.9958L10.4601 1.83705C10.408 1.77009 10.3448 1.72917 10.2704 1.71429H6.73242C6.65802 1.72917 6.59477 1.77009 6.54269 1.83705L5.99582 3.14286ZM16.353 3.5V4.21429C16.353 4.31845 16.3195 4.40402 16.2525 4.47098C16.1855 4.53795 16.1 4.57143 15.9958 4.57143H14.9244V15.1518C14.9244 15.7693 14.7495 16.3013 14.3998 16.7478C14.0501 17.2016 13.6297 17.4286 13.1387 17.4286H3.85296C3.36189 17.4286 2.9415 17.2091 2.5918 16.7701C2.24209 16.3385 2.06724 15.814 2.06724 15.1964V4.57143H0.995815C0.891648 4.57143 0.806083 4.53795 0.739118 4.47098C0.672154 4.40402 0.638672 4.31845 0.638672 4.21429V3.5C0.638672 3.39583 0.672154 3.31027 0.739118 3.2433C0.806083 3.17634 0.891648 3.14286 0.995815 3.14286H4.44448L5.22573 1.27902C5.33733 1.00372 5.53823 0.769345 5.8284 0.575893C6.11858 0.38244 6.41248 0.285713 6.7101 0.285713H10.2815C10.5791 0.285713 10.873 0.38244 11.1632 0.575893C11.4534 0.769345 11.6543 1.00372 11.7659 1.27902L12.5472 3.14286H15.9958C16.1 3.14286 16.1855 3.17634 16.2525 3.2433C16.3195 3.31027 16.353 3.39583 16.353 3.5Z" fill="white"/>
</svg>
