<svg width="26" height="27" viewBox="0 0 26 27" fill="none" xmlns="http://www.w3.org/2000/svg">
<path d="M21.5672 18.2578C21.5672 18.135 21.5561 18.0458 21.5338 17.99C21.5114 17.9342 21.411 17.8449 21.2324 17.7221C21.0539 17.5882 20.8251 17.4487 20.546 17.3036C20.2782 17.1473 20.0159 16.9967 19.7592 16.8516C19.5025 16.7065 19.2458 16.567 18.9891 16.433C18.7436 16.2991 18.5873 16.2154 18.5204 16.1819C18.4646 16.1484 18.3585 16.0759 18.2023 15.9643C18.046 15.8527 17.9065 15.769 17.7838 15.7132C17.661 15.6574 17.5438 15.6295 17.4322 15.6295C17.2648 15.6295 17.0583 15.7467 16.8128 15.981C16.5784 16.2042 16.3608 16.4554 16.1599 16.7344C15.959 17.0022 15.7414 17.2533 15.507 17.4877C15.2838 17.7109 15.0996 17.8225 14.9545 17.8225C14.8764 17.8225 14.7815 17.8058 14.6699 17.7723C14.5695 17.7277 14.4858 17.6886 14.4188 17.6551C14.3518 17.6217 14.257 17.5714 14.1342 17.5045C14.0114 17.4263 13.9333 17.3761 13.8998 17.3538C12.7949 16.74 11.8463 16.0368 11.0539 15.2444C10.2614 14.4408 9.55273 13.4866 8.92773 12.3817C8.90541 12.3482 8.85519 12.2701 8.77706 12.1473C8.7101 12.0246 8.65988 11.9297 8.6264 11.8627C8.59291 11.7958 8.55385 11.7121 8.50921 11.6116C8.47573 11.5 8.45898 11.4051 8.45898 11.327C8.45898 11.1819 8.57059 10.9978 8.79381 10.7746C9.02818 10.5402 9.2793 10.3225 9.54715 10.1217C9.82617 9.92076 10.0773 9.70312 10.3005 9.46875C10.5349 9.22321 10.6521 9.01674 10.6521 8.84933C10.6521 8.73772 10.6242 8.62053 10.5684 8.49777C10.5126 8.375 10.4289 8.23549 10.3172 8.07924C10.2056 7.92299 10.1331 7.81696 10.0996 7.76116C10.0661 7.6942 9.98242 7.53795 9.84849 7.29241C9.71457 7.03571 9.57506 6.77902 9.42997 6.52232C9.28488 6.26562 9.13421 6.00335 8.97796 5.73549C8.83287 5.45647 8.69336 5.22768 8.55943 5.04911C8.43666 4.87054 8.34738 4.77009 8.29157 4.74777C8.23577 4.72545 8.14648 4.71428 8.02372 4.71428C7.488 4.71428 6.92439 4.83705 6.33287 5.08259C5.81948 5.31696 5.37305 5.8471 4.99358 6.67299C4.61412 7.48772 4.42439 8.21317 4.42439 8.84933C4.42439 9.0279 4.43555 9.21763 4.45787 9.41853C4.49135 9.61942 4.51925 9.79241 4.54157 9.9375C4.57506 10.0714 4.62528 10.2556 4.69224 10.49C4.77037 10.7132 4.82617 10.875 4.85965 10.9754C4.9043 11.0759 4.97684 11.26 5.07729 11.5279C5.17773 11.7958 5.23912 11.9632 5.26144 12.0301C5.93108 13.8605 7.13644 15.6518 8.87751 17.404C10.6297 19.1451 12.421 20.3504 14.2514 21.0201C14.3184 21.0424 14.4858 21.1038 14.7536 21.2042C15.0215 21.3047 15.2056 21.3772 15.3061 21.4219C15.4065 21.4554 15.5684 21.5112 15.7916 21.5893C16.026 21.6562 16.2101 21.7065 16.344 21.74C16.4891 21.7623 16.6621 21.7902 16.863 21.8237C17.0639 21.846 17.2536 21.8571 17.4322 21.8571C18.0684 21.8571 18.7938 21.6674 19.6085 21.2879C20.4344 20.9085 20.9646 20.4621 21.1989 19.9487C21.4445 19.3571 21.5672 18.7935 21.5672 18.2578ZM25.853 5.25V21.3214C25.853 22.6496 25.3786 23.7824 24.43 24.7199C23.4925 25.6685 22.3597 26.1429 21.0315 26.1429H4.9601C3.63198 26.1429 2.49358 25.6685 1.54492 24.7199C0.607422 23.7824 0.138672 22.6496 0.138672 21.3214V5.25C0.138672 3.92187 0.607422 2.78906 1.54492 1.85156C2.49358 0.9029 3.63198 0.42857 4.9601 0.42857H21.0315C22.3597 0.42857 23.4925 0.9029 24.43 1.85156C25.3786 2.78906 25.853 3.92187 25.853 5.25Z" fill="#0E5D62"/>
</svg>
