<svg width="29" height="29" viewBox="0 0 29 29" fill="none" xmlns="http://www.w3.org/2000/svg">
<path d="M17.6452 17.5212C19.1184 16.048 19.8551 14.279 19.8551 12.2143C19.8551 10.1496 19.1184 8.38616 17.6452 6.92411C16.1832 5.45089 14.4198 4.71428 12.3551 4.71428C10.2903 4.71428 8.52135 5.45089 7.04813 6.92411C5.58608 8.38616 4.85505 10.1496 4.85505 12.2143C4.85505 14.279 5.58608 16.048 7.04813 17.5212C8.52135 18.9833 10.2903 19.7143 12.3551 19.7143C14.4198 19.7143 16.1832 18.9833 17.6452 17.5212ZM28.4265 26.1429C28.4265 26.7232 28.2144 27.2254 27.7903 27.6496C27.3662 28.0737 26.864 28.2857 26.2836 28.2857C25.6809 28.2857 25.1787 28.0737 24.7769 27.6496L19.0347 21.9241C17.037 23.308 14.8104 24 12.3551 24C10.7591 24 9.23005 23.6931 7.768 23.0792C6.3171 22.4542 5.06152 21.6172 4.00126 20.5681C2.95215 19.5078 2.11509 18.2522 1.49009 16.8013C0.876256 15.3393 0.569336 13.8103 0.569336 12.2143C0.569336 10.6183 0.876256 9.09486 1.49009 7.64397C2.11509 6.18192 2.95215 4.92634 4.00126 3.87723C5.06152 2.81696 6.3171 1.97991 7.768 1.36607C9.23005 0.74107 10.7591 0.42857 12.3551 0.42857C13.951 0.42857 15.4745 0.74107 16.9254 1.36607C18.3874 1.97991 19.643 2.81696 20.6921 3.87723C21.7524 4.92634 22.5894 6.18192 23.2033 7.64397C23.8283 9.09486 24.1408 10.6183 24.1408 12.2143C24.1408 14.6696 23.4488 16.8962 22.0649 18.894L27.8071 24.6362C28.22 25.0491 28.4265 25.5513 28.4265 26.1429Z" fill="#97AAE1"/>
</svg>
