<svg width="26" height="27" viewBox="0 0 26 27" fill="none" xmlns="http://www.w3.org/2000/svg">
<path d="M19.5128 17.0692C19.5128 16.779 19.4068 16.5279 19.1948 16.3158L16.1646 13.2857L19.1948 10.2556C19.4068 10.0435 19.5128 9.79241 19.5128 9.50223C19.5128 9.20089 19.4068 8.9442 19.1948 8.73214L17.6881 7.22545C17.476 7.01339 17.2193 6.90737 16.918 6.90737C16.6278 6.90737 16.3767 7.01339 16.1646 7.22545L13.1345 10.2556L10.1044 7.22545C9.8923 7.01339 9.64118 6.90737 9.351 6.90737C9.04967 6.90737 8.79297 7.01339 8.58092 7.22545L7.07422 8.73214C6.86217 8.9442 6.75614 9.20089 6.75614 9.50223C6.75614 9.79241 6.86217 10.0435 7.07422 10.2556L10.1044 13.2857L7.07422 16.3158C6.86217 16.5279 6.75614 16.779 6.75614 17.0692C6.75614 17.3705 6.86217 17.6272 7.07422 17.8393L8.58092 19.346C8.79297 19.558 9.04967 19.6641 9.351 19.6641C9.64118 19.6641 9.8923 19.558 10.1044 19.346L13.1345 16.3158L16.1646 19.346C16.3767 19.558 16.6278 19.6641 16.918 19.6641C17.2193 19.6641 17.476 19.558 17.6881 19.346L19.1948 17.8393C19.4068 17.6272 19.5128 17.3705 19.5128 17.0692ZM24.2673 6.8404C25.4169 8.80469 25.9916 10.9531 25.9916 13.2857C25.9916 15.6183 25.4169 17.7723 24.2673 19.7478C23.1177 21.7121 21.5552 23.269 19.5798 24.4185C17.6155 25.5681 15.4671 26.1429 13.1345 26.1429C10.8019 26.1429 8.64788 25.5681 6.67243 24.4185C4.70815 23.269 3.15123 21.7121 2.00167 19.7478C0.852121 17.7723 0.277344 15.6183 0.277344 13.2857C0.277344 10.9531 0.852121 8.80469 2.00167 6.8404C3.15123 4.86495 4.70815 3.30245 6.67243 2.1529C8.64788 1.00335 10.8019 0.42857 13.1345 0.42857C15.4671 0.42857 17.6155 1.00335 19.5798 2.1529C21.5552 3.30245 23.1177 4.86495 24.2673 6.8404Z" fill="#97AAE1"/>
</svg>
