<svg width="20" height="13" viewBox="0 0 20 13" fill="none" xmlns="http://www.w3.org/2000/svg">
<path d="M18.5714 6.57143C17.4405 4.81548 16.0231 3.50223 14.3192 2.6317C14.7731 3.40551 15 4.24256 15 5.14286C15 6.51934 14.5089 7.69866 13.5268 8.6808C12.5521 9.65551 11.3765 10.1429 10 10.1429C8.62351 10.1429 7.4442 9.65551 6.46205 8.6808C5.48735 7.69866 5 6.51934 5 5.14286C5 4.24256 5.22693 3.40551 5.6808 2.6317C3.97693 3.50223 2.55952 4.81548 1.42857 6.57143C2.41815 8.09673 3.65699 9.31324 5.14509 10.221C6.64063 11.1213 8.25893 11.5714 10 11.5714C11.7411 11.5714 13.3557 11.1213 14.8438 10.221C16.3393 9.31324 17.5818 8.09673 18.5714 6.57143ZM10.3795 2.66518C10.4836 2.56101 10.5357 2.43452 10.5357 2.28571C10.5357 2.1369 10.4836 2.01042 10.3795 1.90625C10.2753 1.80208 10.1488 1.75 10 1.75C9.06994 1.75 8.27009 2.08482 7.60045 2.75446C6.93824 3.41667 6.60714 4.2128 6.60714 5.14286C6.60714 5.29167 6.65923 5.41815 6.76339 5.52232C6.86756 5.62649 6.99405 5.67857 7.14286 5.67857C7.29167 5.67857 7.41816 5.62649 7.52232 5.52232C7.62649 5.41815 7.67857 5.29167 7.67857 5.14286C7.67857 4.50298 7.90551 3.9561 8.35938 3.50223C8.81324 3.04836 9.36012 2.82143 10 2.82143C10.1488 2.82143 10.2753 2.76934 10.3795 2.66518ZM19.7768 5.80134C19.9256 6.06176 20 6.31845 20 6.57143C20 6.8244 19.9256 7.0811 19.7768 7.34152C18.7351 9.05283 17.3326 10.4256 15.5692 11.4598C13.8132 12.4866 11.9568 13 10 13C8.04315 13 6.18304 12.4829 4.41964 11.4487C2.66369 10.4144 1.26488 9.04539 0.223214 7.34152C0.0744048 7.0811 0 6.8244 0 6.57143C0 6.31845 0.0744048 6.06176 0.223214 5.80134C1.26488 4.09747 2.66369 2.72842 4.41964 1.6942C6.18304 0.659969 8.04315 0.142856 10 0.142856C11.9568 0.142856 13.8132 0.659969 15.5692 1.6942C17.3326 2.72842 18.7351 4.09747 19.7768 5.80134Z" fill="#97AAE1"/>
</svg>
