<svg width="20" height="19" viewBox="0 0 20 19" fill="none" xmlns="http://www.w3.org/2000/svg">
<path d="M11.964 11.6808C12.9462 10.6987 13.4372 9.51934 13.4372 8.14286C13.4372 6.76637 12.9462 5.59077 11.964 4.61607C10.9893 3.63393 9.81371 3.14286 8.43722 3.14286C7.06073 3.14286 5.88142 3.63393 4.89927 4.61607C3.92457 5.59077 3.43722 6.76637 3.43722 8.14286C3.43722 9.51934 3.92457 10.6987 4.89927 11.6808C5.88142 12.6555 7.06073 13.1429 8.43722 13.1429C9.81371 13.1429 10.9893 12.6555 11.964 11.6808ZM19.1515 17.4286C19.1515 17.8155 19.0101 18.1503 18.7274 18.433C18.4447 18.7158 18.1098 18.8571 17.7229 18.8571C17.3212 18.8571 16.9863 18.7158 16.7185 18.433L12.8903 14.6161C11.5585 15.5387 10.0741 16 8.43722 16C7.37323 16 6.35389 15.7954 5.37919 15.3862C4.41192 14.9695 3.57487 14.4115 2.86802 13.7121C2.16862 13.0052 1.61058 12.1682 1.19392 11.2009C0.784691 10.2262 0.580078 9.20684 0.580078 8.14286C0.580078 7.07887 0.784691 6.06324 1.19392 5.09598C1.61058 4.12128 2.16862 3.28423 2.86802 2.58482C3.57487 1.87798 4.41192 1.31994 5.37919 0.910713C6.35389 0.494047 7.37323 0.285713 8.43722 0.285713C9.50121 0.285713 10.5168 0.494047 11.4841 0.910713C12.4588 1.31994 13.2959 1.87798 13.9953 2.58482C14.7021 3.28423 15.2601 4.12128 15.6694 5.09598C16.086 6.06324 16.2944 7.07887 16.2944 8.14286C16.2944 9.77976 15.8331 11.2641 14.9104 12.596L18.7386 16.4241C19.0139 16.6994 19.1515 17.0342 19.1515 17.4286Z" fill="#4F4F4F"/>
</svg>
